<svg xmlns="http://www.w3.org/2000/svg" width="30.44" height="30.441" viewBox="0 0 30.44 30.441">
  <path id="beskeder" d="M15.156,32C6.75,32-.062,38.326-.062,46.133a13.446,13.446,0,0,0,3.145,8.582A17.616,17.616,0,0,1,.324,59.689a1.81,1.81,0,0,0-.273,1.767,1.439,1.439,0,0,0,1.314.985,13.313,13.313,0,0,0,8.269-3.146,16.263,16.263,0,0,0,5.522.972c8.406,0,15.218-6.326,15.218-14.133S23.561,32,15.156,32Zm0,25a13.682,13.682,0,0,1-4.661-.822l-1.349-.489-1.159.938A12.27,12.27,0,0,1,4.568,58.6,18.137,18.137,0,0,0,5.751,55.87l.63-1.909L5.157,52.479a10.012,10.012,0,0,1-2.366-6.346c0-5.993,5.546-10.872,12.365-10.872S27.52,40.14,27.52,46.133,21.974,57,15.156,57Z" transform="translate(0.066 -32)" fill="#949596"/>
</svg>
