<svg xmlns="http://www.w3.org/2000/svg" width="266.352" height="144.332" viewBox="0 0 266.352 144.332">
  <g id="undraw_page_not_found_su7k-3" transform="translate(0.366)">
    <ellipse id="Ellipse_71" data-name="Ellipse 71" cx="130.317" cy="8.627" rx="130.317" ry="8.627" transform="translate(3.247 127.078)" fill="#f2f2f2"/>
    <path id="Path_186" data-name="Path 186" d="M472.305,324.894c-21.232,0-36.477,13.622-36.477,45.407,0,36.023,15.244,45.558,36.477,45.558S509.69,405.415,509.69,370.3C509.69,332.765,493.537,324.894,472.305,324.894Zm.14,79.007c-14.706,0-22.389-8.628-22.389-33.578,0-22.015,8-33.624,22.7-33.624s22.7,7.626,22.7,33.624C495.463,394.645,487.151,403.9,472.445,403.9Z" transform="translate(-343.736 -283.635)" fill="#2f2e41"/>
    <path id="Path_187" data-name="Path 187" d="M183.7,401.628h-8.779V375.777a5.177,5.177,0,0,0-5.177-5.177h-2.057a5.177,5.177,0,0,0-5.177,5.177v25.851H137.747a2.956,2.956,0,0,1-2.613-4.336l26.207-49.6a5.177,5.177,0,0,0-2.367-7.1l-1.547-.731a5.177,5.177,0,0,0-6.776,2.241l-31.963,59.793a7.02,7.02,0,0,0-.829,3.31h0a7.02,7.02,0,0,0,7.02,7.02h37.63v16.346a6.206,6.206,0,0,0,6.206,6.206h0a6.206,6.206,0,0,0,6.206-6.206V412.222H183.7a5.3,5.3,0,0,0,5.3-5.3h0a5.3,5.3,0,0,0-5.3-5.3Z" transform="translate(-104.319 -294.529)" fill="#fff"/>
    <path id="Path_188" data-name="Path 188" d="M841.694,401.628h-8.779V375.777a5.177,5.177,0,0,0-5.177-5.177h-2.057a5.177,5.177,0,0,0-5.177,5.177v25.851H795.743a2.955,2.955,0,0,1-2.613-4.336l26.207-49.6a5.177,5.177,0,0,0-2.367-7.1l-1.547-.731a5.177,5.177,0,0,0-6.776,2.241l-31.963,59.793a7.02,7.02,0,0,0-.829,3.309h0a7.02,7.02,0,0,0,7.02,7.02H820.5v16.346a6.206,6.206,0,0,0,6.206,6.206h0a6.206,6.206,0,0,0,6.206-6.206V412.222h8.779a5.3,5.3,0,0,0,5.3-5.3h0a5.3,5.3,0,0,0-5.3-5.3Z" transform="translate(-599.76 -294.529)" fill="#fff"/>
    <path id="Path_189" data-name="Path 189" d="M193.5,389.374h-8.779V363.524a5.177,5.177,0,0,0-5.177-5.177h-2.057a5.177,5.177,0,0,0-5.177,5.177v25.851H147.549a2.955,2.955,0,0,1-2.613-4.336l26.207-49.6a5.177,5.177,0,0,0-2.367-7.1l-1.547-.731a5.177,5.177,0,0,0-6.776,2.241L128.49,389.64a7.02,7.02,0,0,0-.829,3.309h0a7.02,7.02,0,0,0,7.02,7.02h37.63v16.346a6.206,6.206,0,0,0,6.206,6.206h0a6.206,6.206,0,0,0,6.206-6.206V399.969H193.5a5.3,5.3,0,0,0,5.3-5.3h0a5.3,5.3,0,0,0-5.3-5.3Z" transform="translate(-111.7 -285.303)" fill="none" stroke="#3f3d56" stroke-miterlimit="10" stroke-width="1"/>
    <path id="Path_190" data-name="Path 190" d="M860.074,389.374H851.3V363.524a5.177,5.177,0,0,0-5.177-5.177h-2.057a5.177,5.177,0,0,0-5.177,5.177v25.851H814.123a2.955,2.955,0,0,1-2.613-4.336l26.207-49.6a5.177,5.177,0,0,0-2.367-7.1l-1.547-.731a5.177,5.177,0,0,0-6.776,2.241L795.064,389.64a7.02,7.02,0,0,0-.829,3.309h0a7.02,7.02,0,0,0,7.02,7.02h37.63v16.346a6.206,6.206,0,0,0,6.206,6.206h0a6.205,6.205,0,0,0,6.205-6.206V399.969h8.779a5.3,5.3,0,0,0,5.3-5.3h0A5.3,5.3,0,0,0,860.074,389.374Z" transform="translate(-613.599 -285.303)" fill="none" stroke="#3f3d56" stroke-miterlimit="10" stroke-width="1"/>
    <path id="Path_191" data-name="Path 191" d="M491.91,313.866c-21.232,0-36.477,13.622-36.477,45.407,0,36.023,15.245,45.558,36.477,45.558S529.3,394.387,529.3,359.273C529.3,321.737,513.143,313.866,491.91,313.866Zm.14,79.007c-14.706,0-22.389-8.628-22.389-33.578,0-22.015,8-33.624,22.7-33.624s22.7,7.626,22.7,33.624C515.068,383.617,506.756,392.874,492.05,392.874Z" transform="translate(-358.498 -275.332)" fill="none" stroke="#3f3d56" stroke-miterlimit="10" stroke-width="1"/>
    <circle id="Ellipse_72" data-name="Ellipse 72" cx="3.187" cy="3.187" r="3.187" transform="translate(113.206 1.322)" fill="#2f2e41"/>
    <ellipse id="Ellipse_73" data-name="Ellipse 73" cx="8.94" cy="11.583" rx="8.94" ry="11.583" transform="translate(115.227)" fill="#2f2e41"/>
    <path id="Path_192" data-name="Path 192" d="M538.415,207.523c-4.478,0-8.187-4.267-8.838-9.834a15.049,15.049,0,0,0-.1,1.749c0,6.4,4,11.583,8.94,11.583s8.94-5.186,8.94-11.583a15.036,15.036,0,0,0-.1-1.749C546.6,203.256,542.893,207.523,538.415,207.523Z" transform="translate(-414.248 -187.856)" opacity="0.1"/>
    <path id="Path_193" data-name="Path 193" d="M598.067,332.276a3.319,3.319,0,0,1-1.937,1.862,17.111,17.111,0,0,1-6.611,1.3,11.165,11.165,0,0,1-1.765-.033,5.074,5.074,0,0,1-3.026-1.391.415.415,0,0,1,.011-.7,11.622,11.622,0,0,1,5.34-2.771c1.565-.451,4.294-1.621,6-1.463C597.733,329.228,598.309,331.28,598.067,332.276Z" transform="translate(-455.709 -286.772)" fill="#3f3d56"/>
    <path id="Path_194" data-name="Path 194" d="M598.067,332.276a3.319,3.319,0,0,1-1.937,1.862,17.111,17.111,0,0,1-6.611,1.3,11.165,11.165,0,0,1-1.765-.033,5.074,5.074,0,0,1-3.026-1.391.415.415,0,0,1,.011-.7,11.622,11.622,0,0,1,5.34-2.771c1.565-.451,4.294-1.621,6-1.463C597.733,329.228,598.309,331.28,598.067,332.276Z" transform="translate(-455.709 -286.772)" opacity="0.1"/>
    <path id="Path_195" data-name="Path 195" d="M538.471,278.94a4.884,4.884,0,0,0-.3,3.724,6.507,6.507,0,0,0,2.181,3.087c2.494,2,5.926,2.274,9.122,2.246a70.322,70.322,0,0,0,8.376-.574,10.015,10.015,0,0,0,2.718-.631,4.166,4.166,0,0,0,2.331-2.353,2.867,2.867,0,0,0-.774-3.106,4.865,4.865,0,0,0-2.841-.776l-5.7-.343a9.676,9.676,0,0,1,2-1.307,9.017,9.017,0,0,0,2.177-2.306,31.87,31.87,0,0,1,3.32-3.413,4.9,4.9,0,0,0,1.652,2.674c.793.735,1.707,1.326,2.531,2.026,2,1.694,3.433,3.994,5.532,5.559a10.827,10.827,0,0,0,3.965-1.979l-.816-1.478a.974.974,0,0,0-.307-.384c-.231-.142-.529-.069-.8-.109-.717-.107-1.03-.935-1.311-1.6-.772-1.833-2.25-3.256-3.513-4.794a24.214,24.214,0,0,1-2.469-3.637,12.446,12.446,0,0,0-1.388-2.224,3.13,3.13,0,0,0-2.258-1.181,4.348,4.348,0,0,0-2.153.786,56.947,56.947,0,0,0-5.838,3.977,13.508,13.508,0,0,1-3.085,2.019c-.481.2-.988.329-1.45.566a9.693,9.693,0,0,0-2.083,1.745A13.844,13.844,0,0,1,538.471,278.94Z" transform="translate(-420.62 -239.333)" fill="#3f3d56"/>
    <path id="Path_196" data-name="Path 196" d="M566,223.061a5.875,5.875,0,0,1-.428,1.985,2.482,2.482,0,0,1-1.425,1.377,3.057,3.057,0,0,1-1.389.045,2.688,2.688,0,0,1-1.132-.386,2.413,2.413,0,0,1-.9-1.666c-.1-.641-.054-1.3-.116-1.943a10.6,10.6,0,0,0-.3-1.545c-.042-.169-.085-.337-.127-.5s-.082-.336-.119-.5-.066-.316-.093-.476c-.023-.134-.043-.27-.058-.406a4.55,4.55,0,0,0-.2-1.189,3.611,3.611,0,0,0-.417-.705c-.071-.1-.139-.2-.2-.307a1.455,1.455,0,0,1-.24-.926.807.807,0,0,1,.037-.148c.006-.019.013-.037.021-.055a.445.445,0,0,0,.3-.284.848.848,0,0,0-.036-.439,2.8,2.8,0,0,0-.237-.565c-.065-.118-.287-.331-.288-.466,0-.272.529-.491.744-.6a4.15,4.15,0,0,1,2.124-.431,1.566,1.566,0,0,1,1.24.571,3.739,3.739,0,0,1,.3,1.228.364.364,0,0,0,.074.164.332.332,0,0,0,.183.084,1.124,1.124,0,0,0,.35.014h0a.724.724,0,0,0,.092-.013,1.224,1.224,0,0,0,.5-.217q.145-.038.292-.063l.012,0c.389,1.229.44,2.547.759,3.8a9.747,9.747,0,0,1,.416,1.878c0,.028,0,.057,0,.086,0,.206-.012.414,0,.619a1.729,1.729,0,0,0,.031.275,3.866,3.866,0,0,0,.13.431l0,.007c.015.045.029.091.04.137s.016.066.023.1v0A3.691,3.691,0,0,1,566,223.061Z" transform="translate(-436.22 -199.321)" fill="#fbbebe"/>
    <circle id="Ellipse_74" data-name="Ellipse 74" cx="4.586" cy="4.586" r="4.586" transform="translate(119.736 6.53)" fill="#fbbebe"/>
    <path id="Path_197" data-name="Path 197" d="M603.064,240.719a7.521,7.521,0,0,0-1.294-3.484q.179,1.061.358,2.121a.794.794,0,0,1-.832-.256,2.553,2.553,0,0,1-.436-.809,16.669,16.669,0,0,0-2.028-3.64,21.65,21.65,0,0,1-8.374-2.865c-2.568-1.41-4.972-3.1-7.506-4.571a10.761,10.761,0,0,0-1.37-.7c-.793-.318-1.683-.483-2.435-.857-.05-.025-.1-.051-.151-.078a3.1,3.1,0,0,1-.48-.323,2.556,2.556,0,0,1-.23-.211,5.029,5.029,0,0,1-.879-1.471c-.4-.892-.547-1.969-.95-2.861a2.767,2.767,0,0,1,.618-.436h0c.033-.017.065-.033.1-.049a2.951,2.951,0,0,1,.5-.181q.145-.038.292-.063l.012,0a2.857,2.857,0,0,1,1.357.107,6.272,6.272,0,0,1,1.715,1.056,28.174,28.174,0,0,1,2.507,1.988c.443.424.847.891,1.324,1.276a10.409,10.409,0,0,0,1.249.828l7.736,4.607c.873.52,1.747,1.04,2.6,1.59,1.3.836,2.547,1.743,3.8,2.648l2.208,1.6a2.4,2.4,0,0,1,.626.578,2.094,2.094,0,0,1,.277.848A7.754,7.754,0,0,1,603.064,240.719Z" transform="translate(-449.623 -204.614)" fill="#fbbebe"/>
    <path id="Path_198" data-name="Path 198" d="M548.64,231.924c-.309,1.388-1.712,2.226-2.445,3.445-.911,1.513-.54,3.271-.2,5l-1.876,1.616c-.345.3-.69.594-1.062.856a14.167,14.167,0,0,1-1.695.973l-1.66.854a7.938,7.938,0,0,1-1.625.689,6.264,6.264,0,0,1-3.328-.24,1.5,1.5,0,0,1-.364-.148.592.592,0,0,1-.173-.156.967.967,0,0,1-.11-.627,29.484,29.484,0,0,1,1-5.358,15.793,15.793,0,0,1,2.289-5.615,16.886,16.886,0,0,1,1.959-2.844,4.563,4.563,0,0,0,.908-1.171,6.271,6.271,0,0,0,.225-2.037,4.233,4.233,0,0,1,.4-1.484h0a4.224,4.224,0,0,1,.431-.712l.226.526.148.344.19.442.543,1.263a5.332,5.332,0,0,0,.824,1.468,1.606,1.606,0,0,0,2.748-.211,5.252,5.252,0,0,0,.561-1.486,4.747,4.747,0,0,0,.062-1.936,22.868,22.868,0,0,0-1.1-3.651,3.694,3.694,0,0,1-.267-1.2.823.823,0,0,1,.014-.138l.007-.036a2.951,2.951,0,0,1,.5-.181q.145-.038.291-.063.505,2.733,1.011,5.466c.008.043.016.086.024.129.048.261.1.522.152.783.049.236.1.472.161.706l0,.007c.02.079.041.158.063.236v0c.06.215.127.428.2.637C548.136,229.338,548.933,230.611,548.64,231.924Z" transform="translate(-417.725 -204.734)" fill="#fff"/>
    <path id="Path_199" data-name="Path 199" d="M668.314,333.532a1.627,1.627,0,0,0,.151.777,1.86,1.86,0,0,0,1.572.693,46.539,46.539,0,0,0,10.442-.318,1.207,1.207,0,0,0,.531-.165c.492-.345.189-1.185-.348-1.454a6.745,6.745,0,0,0-1.763-.321,5.553,5.553,0,0,1-1.65-.716q-1.792-1.029-3.531-2.146a2.8,2.8,0,0,0-2.283-.654A4.073,4.073,0,0,0,668.314,333.532Z" transform="translate(-518.785 -286.842)" fill="#3f3d56"/>
    <path id="Path_200" data-name="Path 200" d="M520.312,228.781h0c-.005.033-.011.065-.018.1-.009.053-.019.107-.029.159-.1.494-.215.985-.351,1.473-.373,1.349-.873,2.676-1.369,3.983l-3.993,10.518c-.336.883-.671,1.767-1.053,2.632-.128.288-.259.579-.389.873a12.149,12.149,0,0,0-1.067,3.257,6.781,6.781,0,0,0-.047,2.233,2.291,2.291,0,0,0,1.292,1.722c.341.133.828.311.735.665-.051.194-.271.289-.47.322a1.806,1.806,0,0,1-1.474-.424c-.372-.33-.658-.844-1.154-.9a1.951,1.951,0,0,0-.972.312c-1.281.585-2.774.176-4.119-.24a1.445,1.445,0,0,1,1.2-1.013,9.678,9.678,0,0,1,1.66-.047.867.867,0,0,0,.5-.13.915.915,0,0,0,.272-.465,19.511,19.511,0,0,0,.794-3.248c.179-1.153.253-2.324.508-3.462.2-.889.5-1.749.767-2.621a55.518,55.518,0,0,0,1.25-5.454,19.279,19.279,0,0,0,.352-2.314c.044-.645.023-1.294.086-1.936a15.045,15.045,0,0,1,.522-2.47l.713-2.641A8.88,8.88,0,0,1,516.081,226a3.449,3.449,0,0,1,2.477-1.183,2.441,2.441,0,0,1,.526.057l.086.022a2.134,2.134,0,0,1,.537.222c.275-.175.415-.113.6.156a1.722,1.722,0,0,1,.218.938A12.948,12.948,0,0,1,520.312,228.781Z" transform="translate(-396.447 -208.279)" fill="#fbbebe"/>
    <path id="Path_201" data-name="Path 201" d="M559.395,229.532l-.012.012-.063.063-.625.624-.306-1.287-1.05-4.411a2.44,2.44,0,0,1,.526.057.807.807,0,0,1,.036-.148l.05.17.356,1.211.674,2.3.111.379h0Z" transform="translate(-435.228 -207.999)" fill="#fff"/>
    <path id="Path_202" data-name="Path 202" d="M551.385,178.612a3.108,3.108,0,0,1-.914,2.2,3.049,3.049,0,0,1-.336.291,3.1,3.1,0,0,1-1.862.624h-3.729a3.11,3.11,0,0,1,0-6.221h3.729a3.12,3.12,0,0,1,3.112,3.109Z" transform="translate(-423.251 -171.151)" fill="#2f2e41"/>
    <circle id="Ellipse_75" data-name="Ellipse 75" cx="3.187" cy="3.187" r="3.187" transform="translate(128.443 1.322)" fill="#2f2e41"/>
    <path id="Path_203" data-name="Path 203" d="M595.2,163.234l-.117,0a3.186,3.186,0,0,1,0,6.368l.117,0a3.187,3.187,0,0,0,0-6.374Z" transform="translate(-463.647 -161.912)" opacity="0.1"/>
    <path id="Path_204" data-name="Path 204" d="M524.481,163.234l.117,0a3.186,3.186,0,0,0,0,6.368l-.117,0a3.187,3.187,0,0,1,0-6.374Z" transform="translate(-408.088 -161.912)" opacity="0.1"/>
    <path id="Path_205" data-name="Path 205" d="M553.94,198.159a3.1,3.1,0,0,1-1.862.624h-3.729a3.1,3.1,0,0,1-1.862-.624Z" transform="translate(-427.057 -188.21)" opacity="0.1"/>
    <path id="Path_206" data-name="Path 206" d="M674.14,287.594s.8,2.315,1.539,1.7l-.586-3.026Z" transform="translate(-523.173 -254.551)" fill="#fbbebe"/>
    <path id="Path_207" data-name="Path 207" d="M1059.6,547.035a5.142,5.142,0,1,0,.685-9.861l.129,2.646-1.252-2.268a5.123,5.123,0,0,0-2.639,2.9,5.049,5.049,0,0,0-.3,1.391A5.141,5.141,0,0,0,1059.6,547.035Z" transform="translate(-810.854 -443.386)" fill="#57b894"/>
    <path id="Path_208" data-name="Path 208" d="M1092.043,564.259c-.442-2.251,1.473-4.246,3.365-5.543s4.1-2.571,4.748-4.772c.928-3.163-1.836-6.06-3.986-8.558a30.956,30.956,0,0,1-4.082-6.067,8.356,8.356,0,0,1-.976-2.759,9.523,9.523,0,0,1,.735-4.135q2.268-6.683,4.849-13.254" transform="translate(-837.106 -429.917)" fill="none" stroke="#3f3d56" stroke-miterlimit="10" stroke-width="1"/>
    <path id="Path_209" data-name="Path 209" d="M1060.453,544.277a5.142,5.142,0,1,0,.685-9.861l.129,2.646-1.252-2.268a5.122,5.122,0,0,0-2.639,2.9,5.049,5.049,0,0,0-.3,1.391A5.141,5.141,0,0,0,1060.453,544.277Z" transform="translate(-811.499 -441.31)" fill="none" stroke="#3f3d56" stroke-miterlimit="10" stroke-width="1"/>
    <path id="Path_210" data-name="Path 210" d="M1091.511,505.15a5.136,5.136,0,0,1,3.7-3.26l.423,2.516.785-2.642a5.141,5.141,0,1,1-4.909,3.387Z" transform="translate(-837.202 -416.809)" fill="#57b894"/>
    <path id="Path_211" data-name="Path 211" d="M1092.654,501.473a5.136,5.136,0,0,1,3.7-3.26l.423,2.516.785-2.642a5.141,5.141,0,1,1-4.909,3.387Z" transform="translate(-838.063 -414.04)" fill="none" stroke="#3f3d56" stroke-miterlimit="10" stroke-width="1"/>
    <path id="Path_212" data-name="Path 212" d="M1097.714,595.084a5.141,5.141,0,0,0,4.55-9.146l-.6,2.031-.428-2.545-.013-.005a5.141,5.141,0,0,0-3.507,9.666Z" transform="translate(-839.553 -479.564)" fill="#57b894"/>
    <path id="Path_213" data-name="Path 213" d="M1098.7,591.36a5.141,5.141,0,0,0,4.55-9.146l-.6,2.031-.428-2.546-.013,0a5.141,5.141,0,0,0-3.507,9.666Z" transform="translate(-840.299 -476.76)" fill="none" stroke="#3f3d56" stroke-miterlimit="10" stroke-width="1"/>
    <path id="Path_214" data-name="Path 214" d="M1086.137,641.677a5.139,5.139,0,1,0,.991-4.026l2.291,3.448-3.13-1.83a5.1,5.1,0,0,0-.151,2.408Z" transform="translate(-833.329 -517.619)" fill="#57b894"/>
    <path id="Path_215" data-name="Path 215" d="M1086.994,638.919a5.139,5.139,0,1,0,.991-4.026l2.291,3.448-3.13-1.83A5.091,5.091,0,0,0,1086.994,638.919Z" transform="translate(-833.974 -515.542)" fill="none" stroke="#3f3d56" stroke-miterlimit="10" stroke-width="1"/>
    <path id="Path_216" data-name="Path 216" d="M65.28,608.16a3.378,3.378,0,1,0,.45-6.479l.085,1.739-.823-1.49a3.365,3.365,0,0,0-1.734,1.9,3.313,3.313,0,0,0-.194.914A3.378,3.378,0,0,0,65.28,608.16Z" transform="translate(-63.054 -491.987)" fill="#57b894"/>
    <path id="Path_217" data-name="Path 217" d="M86.6,619.477c-.29-1.479.968-2.79,2.211-3.642s2.7-1.689,3.119-3.135c.609-2.078-1.206-3.982-2.619-5.623a20.338,20.338,0,0,1-2.682-3.986,5.488,5.488,0,0,1-.641-1.812,6.255,6.255,0,0,1,.483-2.717q1.49-4.391,3.186-8.708" transform="translate(-80.303 -483.137)" fill="none" stroke="#3f3d56" stroke-miterlimit="10" stroke-width="1"/>
    <path id="Path_218" data-name="Path 218" d="M65.843,606.348a3.378,3.378,0,1,0,.45-6.479l.085,1.739-.823-1.49a3.365,3.365,0,0,0-1.734,1.9,3.312,3.312,0,0,0-.194.914,3.378,3.378,0,0,0,2.217,3.414Z" transform="translate(-63.479 -490.623)" fill="none" stroke="#3f3d56" stroke-miterlimit="10" stroke-width="1"/>
    <path id="Path_219" data-name="Path 219" d="M86.248,580.641A3.374,3.374,0,0,1,88.68,578.5l.278,1.653.516-1.736a3.378,3.378,0,1,1-3.225,2.225Z" transform="translate(-80.366 -474.525)" fill="#57b894"/>
    <path id="Path_220" data-name="Path 220" d="M87,578.225a3.374,3.374,0,0,1,2.431-2.142l.278,1.653L90.224,576A3.378,3.378,0,1,1,87,578.225Z" transform="translate(-80.931 -472.706)" fill="none" stroke="#3f3d56" stroke-miterlimit="10" stroke-width="1"/>
    <path id="Path_221" data-name="Path 221" d="M90.324,639.73a3.378,3.378,0,0,0,2.99-6.009l-.4,1.334-.281-1.672-.009,0a3.378,3.378,0,1,0-2.3,6.351Z" transform="translate(-81.911 -515.757)" fill="#57b894"/>
    <path id="Path_222" data-name="Path 222" d="M90.975,637.283a3.378,3.378,0,0,0,2.99-6.009l-.4,1.334-.281-1.672-.009,0a3.378,3.378,0,0,0-2.3,6.351Z" transform="translate(-82.4 -513.914)" fill="none" stroke="#3f3d56" stroke-miterlimit="10" stroke-width="1"/>
    <path id="Path_223" data-name="Path 223" d="M82.718,670.342a3.376,3.376,0,1,0,.651-2.645l1.505,2.265-2.057-1.2A3.346,3.346,0,0,0,82.718,670.342Z" transform="translate(-77.821 -540.759)" fill="#57b894"/>
    <path id="Path_224" data-name="Path 224" d="M83.281,668.53a3.376,3.376,0,1,0,.651-2.645l1.505,2.265-2.057-1.2a3.346,3.346,0,0,0-.1,1.582Z" transform="translate(-78.245 -539.395)" fill="none" stroke="#3f3d56" stroke-miterlimit="10" stroke-width="1"/>
    <ellipse id="Ellipse_76" data-name="Ellipse 76" cx="4.2" cy="5.435" rx="4.2" ry="5.435" transform="translate(114.616 73.401)" fill="#2f2e41"/>
    <ellipse id="Ellipse_77" data-name="Ellipse 77" cx="4.2" cy="5.435" rx="4.2" ry="5.435" transform="translate(137.468 73.525)" fill="#2f2e41"/>
    <path id="Path_225" data-name="Path 225" d="M576.817,528.947c0,2.456-3.429,4.447-7.658,4.447s-7.658-1.991-7.658-4.447c0-2.127,2.572-3.906,6.008-4.341a12.373,12.373,0,0,1,1.65-.106,12.525,12.525,0,0,1,2.75.3C574.779,525.436,576.817,527.054,576.817,528.947Z" transform="translate(-438.361 -433.929)" fill="#2f2e41"/>
    <ellipse id="Ellipse_78" data-name="Ellipse 78" cx="4.2" cy="5.435" rx="4.2" ry="5.435" transform="translate(115.604 72.166)" fill="none" stroke="#3f3d56" stroke-miterlimit="10" stroke-width="1"/>
    <ellipse id="Ellipse_79" data-name="Ellipse 79" cx="4.2" cy="5.435" rx="4.2" ry="5.435" transform="translate(138.456 72.29)" fill="none" stroke="#3f3d56" stroke-miterlimit="10" stroke-width="1"/>
    <ellipse id="Ellipse_80" data-name="Ellipse 80" cx="7.658" cy="4.447" rx="7.658" ry="4.447" transform="translate(124.127 89.336)" fill="none" stroke="#3f3d56" stroke-miterlimit="10" stroke-width="1"/>
    <path id="Path_226" data-name="Path 226" d="M589.692,524.79a1.219,1.219,0,0,1-.326.838,1.072,1.072,0,0,1-.786.348H586.11A1.152,1.152,0,0,1,585,524.79a1.213,1.213,0,0,1,.2-.677,11.625,11.625,0,0,1,1.65-.113,11.778,11.778,0,0,1,2.75.316A1.253,1.253,0,0,1,589.692,524.79Z" transform="translate(-456.054 -433.552)" fill="#fff"/>
    <circle id="Ellipse_81" data-name="Ellipse 81" cx="1.235" cy="1.235" r="1.235" transform="translate(118.569 74.884)" fill="#fff"/>
    <circle id="Ellipse_82" data-name="Ellipse 82" cx="1.235" cy="1.235" r="1.235" transform="translate(141.544 74.884)" fill="#fff"/>
    <circle id="Ellipse_83" data-name="Ellipse 83" cx="1.235" cy="1.235" r="1.235" transform="translate(142.779 86.495)" fill="#fff" opacity="0.3"/>
    <circle id="Ellipse_84" data-name="Ellipse 84" cx="1.235" cy="1.235" r="1.235" transform="translate(112.64 86.495)" fill="#fff" opacity="0.3"/>
  </g>
</svg>
