<svg id="Favorit" xmlns="http://www.w3.org/2000/svg" width="34.07" height="30.9" viewBox="0 0 34.07 30.9">
  <path id="favorit" data-name="Path 412" d="M32.075,4.734A9.682,9.682,0,0,0,19.031,6.66,9.664,9.664,0,0,0,5.988,4.734,9.653,9.653,0,0,0,2,12.246c-.238,6.794,5.619,12.24,14.559,20.592l.17.158a3.33,3.33,0,0,0,4.581-.018L21.5,32.8c8.94-8.335,14.781-13.781,14.559-20.575A9.647,9.647,0,0,0,32.075,4.734ZM19.2,30.229l-.17.175-.17-.175c-8.106-7.547-13.452-12.537-13.452-17.6A5.9,5.9,0,0,1,11.369,6.5a6.657,6.657,0,0,1,6.079,4.132h3.184A6.615,6.615,0,0,1,26.694,6.5a5.9,5.9,0,0,1,5.96,6.129C32.654,17.692,27.307,22.682,19.2,30.229Z" transform="translate(-1.996 -2.999)" fill="#949596"/>
</svg>
