<svg xmlns="http://www.w3.org/2000/svg" viewBox="0 0 522.7 302.89"><defs><style>.cls-1{fill:#fff;}</style></defs><g id="Lag_2" data-name="Lag 2"><g id="Lag_2-2" data-name="Lag 2"><path class="cls-1" d="M19.41,78.8H0L3.33,55.28H22.74l2.35-16.86a92.3,92.3,0,0,1,3.43-14.8,33.88,33.88,0,0,1,7-12.25A31.88,31.88,0,0,1,47.93,3q7.74-3,19.69-3,4.51,0,8.83.39a55.85,55.85,0,0,1,8.23,1.37l-4.9,24.9a30,30,0,0,0-4.41-1.47,20.73,20.73,0,0,0-4.8-.49q-7.06,0-11,3T54.3,40.18l-2.16,15.1H73.9L70.57,78.8H48.81l-10,71.74H9.41ZM92.91,2.35h29.4L101.54,150.54H72.13Z"/><path class="cls-1" d="M186,138.58h-.4a33,33,0,0,1-14.5,11,48.59,48.59,0,0,1-17.64,3.33A41.41,41.41,0,0,1,140.93,151a27.48,27.48,0,0,1-10.09-5.59,21.9,21.9,0,0,1-6.18-9.21,27,27,0,0,1-1-12.74q1.77-12.34,9.32-19.11a47.77,47.77,0,0,1,17.83-10,86.89,86.89,0,0,1,21.56-3.82Q183.67,90,192.88,90q1-7.83-3.92-12.45a17.64,17.64,0,0,0-12.55-4.6,31.19,31.19,0,0,0-13.62,3,44.74,44.74,0,0,0-11.86,8.33L137.6,68.21a63.56,63.56,0,0,1,20.68-11.46,73,73,0,0,1,23.23-3.83q12.93,0,20.87,3.24a25.36,25.36,0,0,1,12.06,9.51,32,32,0,0,1,4.8,15.38,96.07,96.07,0,0,1-1.08,21.07l-6.66,48.42H184.45Zm-3.14-29.79q-3.33,0-8.33.29a45.78,45.78,0,0,0-9.8,1.67,25.5,25.5,0,0,0-8.43,4.12,10.73,10.73,0,0,0-4.21,7.64,7.37,7.37,0,0,0,.59,4.61,9.8,9.8,0,0,0,2.74,3.23,10.84,10.84,0,0,0,4.21,2,20.74,20.74,0,0,0,4.81.59,31.33,31.33,0,0,0,8.52-1.18,28.69,28.69,0,0,0,7.65-3.33,20,20,0,0,0,5.78-5.49,17.15,17.15,0,0,0,2.94-7.84l.78-6.27Z"/><path class="cls-1" d="M306.76,78.8H280.89l-4.51,31.75a49,49,0,0,0-.59,7.16,13.26,13.26,0,0,0,1.08,5.58,7.48,7.48,0,0,0,3.72,3.63,17.28,17.28,0,0,0,7.35,1.28,52.31,52.31,0,0,0,6.18-.49,11.61,11.61,0,0,0,6-2.26L296.76,150a47.35,47.35,0,0,1-10.48,2.35,94.85,94.85,0,0,1-10.49.59,54.28,54.28,0,0,1-13.52-1.56,26.72,26.72,0,0,1-10.3-5,19.14,19.14,0,0,1-6.07-8.92q-1.87-5.49-.88-13.33l6.46-45.28H232.67L236,55.28h18.82l3.92-28.23h29.4l-3.92,28.23h25.87Z"/><path class="cls-1" d="M72.52,205.28h28.23L99,218.21h.39a29.32,29.32,0,0,1,4.7-5.48,36,36,0,0,1,6.67-4.9,37.53,37.53,0,0,1,8.43-3.53,35.26,35.26,0,0,1,10-1.38A34.41,34.41,0,0,1,146.42,207a20.84,20.84,0,0,1,9.8,12.94q6.48-9.21,14.21-13.14a40.18,40.18,0,0,1,18.33-3.92q9.6,0,15.68,3.24a22.38,22.38,0,0,1,9.22,8.82,31.62,31.62,0,0,1,3.72,13.13,75.79,75.79,0,0,1-.59,16.17L209,300.54h-29.4l7.64-55.47A20.42,20.42,0,0,0,186,233.6q-2.16-4.8-9.41-4.8a20.9,20.9,0,0,0-8.72,1.66,18.16,18.16,0,0,0-6.18,4.61,20.82,20.82,0,0,0-3.92,6.86,42.35,42.35,0,0,0-2,8.24l-7.06,50.37h-29.4l7.06-50.37q.39-2.55.68-6.28a24.79,24.79,0,0,0-.39-7,11,11,0,0,0-3-5.69c-1.56-1.57-4.05-2.35-7.44-2.35a19.88,19.88,0,0,0-9.51,2.06,17.26,17.26,0,0,0-6.18,5.49A25.32,25.32,0,0,0,97,244.09a63.57,63.57,0,0,0-1.77,9L88.6,300.54H59.19Z"/><path class="cls-1" d="M293,288.58h-.39a33.09,33.09,0,0,1-14.51,11,48.59,48.59,0,0,1-17.64,3.33A41.35,41.35,0,0,1,248,301a27.52,27.52,0,0,1-10.1-5.59,21.79,21.79,0,0,1-6.17-9.21,26.77,26.77,0,0,1-1-12.74q1.75-12.35,9.31-19.11a47.89,47.89,0,0,1,17.84-10,86.8,86.8,0,0,1,21.56-3.82q11.26-.59,20.48-.59,1-7.83-3.92-12.45a17.63,17.63,0,0,0-12.54-4.6,31.21,31.21,0,0,0-13.63,3A44.53,44.53,0,0,0,258,234.29l-13.34-16.08a63.66,63.66,0,0,1,20.68-11.46,73,73,0,0,1,23.23-3.83q12.95,0,20.88,3.24a25.38,25.38,0,0,1,12,9.51,31.91,31.91,0,0,1,4.81,15.38,96.69,96.69,0,0,1-1.08,21.07l-6.67,48.42h-27Zm-3.14-29.79c-2.22,0-5,.1-8.33.29a45.78,45.78,0,0,0-9.8,1.67,25.35,25.35,0,0,0-8.42,4.12,10.75,10.75,0,0,0-4.22,7.64,7.44,7.44,0,0,0,.59,4.61,9.92,9.92,0,0,0,2.74,3.23,10.82,10.82,0,0,0,4.22,2,20.59,20.59,0,0,0,4.8.59,31.41,31.41,0,0,0,8.53-1.18,28.77,28.77,0,0,0,7.64-3.33,19.77,19.77,0,0,0,5.78-5.49,17.15,17.15,0,0,0,2.94-7.84l.79-6.27Z"/><path class="cls-1" d="M413.79,228.8H387.91l-4.51,31.75a49,49,0,0,0-.59,7.16,13.26,13.26,0,0,0,1.08,5.58,7.46,7.46,0,0,0,3.73,3.63A17.22,17.22,0,0,0,395,278.2a52.16,52.16,0,0,0,6.17-.49,11.61,11.61,0,0,0,6-2.26L403.79,300a47.57,47.57,0,0,1-10.49,2.35,94.72,94.72,0,0,1-10.49.59,54.39,54.39,0,0,1-13.52-1.56,26.74,26.74,0,0,1-10.29-5,19.16,19.16,0,0,1-6.08-8.92,29.94,29.94,0,0,1-.88-13.33l6.47-45.28H339.69L343,205.28h18.82l3.92-28.23h29.4l-3.92,28.23h25.88Z"/><path class="cls-1" d="M513,284.08A56.16,56.16,0,0,1,493.27,298a58.13,58.13,0,0,1-23,4.9,56,56,0,0,1-20.19-3.52,40.81,40.81,0,0,1-15.39-10.1,39.83,39.83,0,0,1-9-15.78,47.35,47.35,0,0,1-1.27-20.58,55,55,0,0,1,7-20.58,58,58,0,0,1,13.43-15.78A58.88,58.88,0,0,1,463,206.45a64.29,64.29,0,0,1,21.17-3.53,43.58,43.58,0,0,1,18,3.53,32,32,0,0,1,12.74,10.1,38.82,38.82,0,0,1,6.76,15.78,61.65,61.65,0,0,1,.3,20.58l-1.37,9.21H452.4q.59,8.43,5.78,13.43t13.82,5a24.1,24.1,0,0,0,12.65-3.24,42,42,0,0,0,9.89-8.33Zm-19-41.95a15.48,15.48,0,0,0-3.14-12.74q-4.32-5.29-12.35-5.3a23.65,23.65,0,0,0-8.82,1.57,25.56,25.56,0,0,0-6.86,4,22.91,22.91,0,0,0-7.65,12.45Z"/></g></g></svg>