<svg id="Component_106_1" data-name="Component 106 – 1" xmlns="http://www.w3.org/2000/svg" width="19" height="19" viewBox="0 0 19 19">
  <circle id="Ellipse_117" data-name="Ellipse 117" cx="9.5" cy="9.5" r="9.5" fill="#fff"/>
  <g id="photo-camera-interface-symbol-for-button" transform="translate(61.178 -2.027)">
    <path id="Path_402" data-name="Path 402" d="M8.959,9.685A2.185,2.185,0,1,1,6.774,7.536,2.17,2.17,0,0,1,8.959,9.685Zm4.589-3.052v6.1a1.486,1.486,0,0,1-1.5,1.474H1.5A1.486,1.486,0,0,1,0,12.738v-6.1A1.486,1.486,0,0,1,1.5,5.159H3.341v-.51A1.3,1.3,0,0,1,4.652,3.36H8.9a1.3,1.3,0,0,1,1.311,1.289v.51H12.05A1.487,1.487,0,0,1,13.548,6.633ZM10.083,9.685A3.309,3.309,0,1,0,6.774,12.94,3.286,3.286,0,0,0,10.083,9.685Z" transform="translate(-58.453 2.741)" fill="#4670ce"/>
  </g>
</svg>
