<svg xmlns="http://www.w3.org/2000/svg" width="38.051" height="34.335" viewBox="0 0 38.051 34.335">
  <g id="Hejm" transform="translate(1.635 1.749)">
    <path id="hjem" data-name="Path 406" d="M16.408,32.471v-9.3h7.561v9.3a1.881,1.881,0,0,0,1.89,1.86h5.671a1.881,1.881,0,0,0,1.89-1.86V19.447h3.213a.921.921,0,0,0,.624-1.619L21.454,3.819a1.928,1.928,0,0,0-2.533,0L3.119,17.829a.924.924,0,0,0,.624,1.619H6.957V32.471a1.881,1.881,0,0,0,1.89,1.86h5.671A1.881,1.881,0,0,0,16.408,32.471Z" transform="translate(-2.802 -3.345)" fill="none" stroke="#949596" stroke-width="3.2"/>
  </g>
</svg>
