<svg xmlns="http://www.w3.org/2000/svg" width="26.01" height="29.726" viewBox="0 0 26.01 29.726">
  <path id="profil" d="M18.207,17.65c-1.666,0-2.467.929-5.2.929s-3.53-.929-5.2-.929a7.805,7.805,0,0,0-7.8,7.8v1.486a2.788,2.788,0,0,0,2.787,2.787H23.223a2.788,2.788,0,0,0,2.787-2.787V25.453A7.805,7.805,0,0,0,18.207,17.65Zm5.016,9.289H2.787V25.453A5.025,5.025,0,0,1,7.8,20.437c.848,0,2.224.929,5.2.929,3,0,4.349-.929,5.2-.929a5.025,5.025,0,0,1,5.016,5.016ZM13,16.721a8.361,8.361,0,1,0-8.36-8.361A8.363,8.363,0,0,0,13,16.721ZM13,2.787A5.574,5.574,0,1,1,7.431,8.361,5.583,5.583,0,0,1,13,2.787Z" transform="translate(0)" fill="#949596"/>
</svg>
