<svg xmlns="http://www.w3.org/2000/svg" xmlns:xlink="http://www.w3.org/1999/xlink" width="49" height="49" viewBox="0 0 49 49">
  <defs>
    <filter id="Ellipse_89" x="0" y="0" width="49" height="49" filterUnits="userSpaceOnUse">
      <feOffset dy="3" input="SourceAlpha"/>
      <feGaussianBlur stdDeviation="3" result="blur"/>
      <feFlood flood-opacity="0.161"/>
      <feComposite operator="in" in2="blur"/>
      <feComposite in="SourceGraphic"/>
    </filter>
  </defs>
  <g id="Component_132_1" data-name="Component 132 – 1" transform="translate(9 6)">
    <g transform="matrix(1, 0, 0, 1, -9, -6)" filter="url(#Ellipse_89)">
      <circle id="Ellipse_89-2" data-name="Ellipse 89" cx="15.5" cy="15.5" r="15.5" transform="translate(9 6)" fill="#fff"/>
    </g>
    <g id="arrow_back_ios_black_24dp-2" transform="translate(2.149 3.149)">
      <path id="Path_418" data-name="Path 418" d="M0,0H24V24H0Z" fill="none" opacity="0.87"/>
      <path id="Path_419" data-name="Path 419" d="M16.62,2.99a1.249,1.249,0,0,0-1.77,0L6.54,11.3a1,1,0,0,0,0,1.41l8.31,8.31a1.252,1.252,0,1,0,1.77-1.77L9.38,12l7.25-7.25A1.246,1.246,0,0,0,16.62,2.99Z" fill="#4670ce"/>
    </g>
  </g>
</svg>
