<svg id="Verified" xmlns="http://www.w3.org/2000/svg" width="24" height="24" viewBox="0 0 24 24">
  <g id="Group_14" data-name="Group 14">
    <rect id="Rectangle_108" data-name="Rectangle 108" width="24" height="24" fill="none"/>
  </g>
  <g id="Group_15" data-name="Group 15">
    <rect id="Rectangle_109" data-name="Rectangle 109" width="13" height="11" transform="translate(6 7)" fill="#fff"/>
    <path id="Path_227" data-name="Path 227" d="M23,12,20.56,9.21l.34-3.69L17.29,4.7,15.4,1.5,12,2.96,8.6,1.5,6.71,4.69,3.1,5.5l.34,3.7L1,12l2.44,2.79-.34,3.7,3.61.82L8.6,22.5,12,21.03l3.4,1.46,1.89-3.19,3.61-.82-.34-3.69ZM10.09,16.72l-3.8-3.81,1.48-1.48,2.32,2.33,5.85-5.87,1.48,1.48Z" fill="#4670ce"/>
  </g>
</svg>
